<svg width="30" height="30" viewBox="0 0 30 30" fill="none" xmlns="http://www.w3.org/2000/svg">
<g id="vuesax/linear/box">
<g id="box">
<g id="Group">
<g id="Group_2">
<path id="Vector" d="M6.17017 10.44L15.0002 15.55L23.7701 10.47" stroke="#AA205E" stroke-width="1.5" stroke-linecap="round" stroke-linejoin="round"/>
<path id="Vector_2" d="M15.0002 24.61V15.54" stroke="#AA205E" stroke-width="1.5" stroke-linecap="round" stroke-linejoin="round"/>
</g>
<g id="Vector_3" filter="url(#filter0_d_2024_171)">
<path d="M12.9301 5.48L7.59012 8.45003C6.38012 9.12003 5.39014 10.8 5.39014 12.18V17.83C5.39014 19.21 6.38012 20.89 7.59012 21.56L12.9301 24.53C14.0701 25.16 15.9401 25.16 17.0801 24.53L22.4201 21.56C23.6301 20.89 24.6201 19.21 24.6201 17.83V12.18C24.6201 10.8 23.6301 9.12003 22.4201 8.45003L17.0801 5.48C15.9301 4.84 14.0701 4.84 12.9301 5.48Z" stroke="#AA205E" stroke-width="1.5" stroke-linecap="round" stroke-linejoin="round" shape-rendering="crispEdges"/>
</g>
</g>
<path id="Vector_4" d="M20 16.24V12.58L10.51 7.09998" stroke="#AA205E" stroke-width="1.5" stroke-linecap="round" stroke-linejoin="round"/>
</g>
</g>
<defs>
<filter id="filter0_d_2024_171" x="0.640137" y="0.25" width="28.73" height="29.5025" filterUnits="userSpaceOnUse" color-interpolation-filters="sRGB">
<feFlood flood-opacity="0" result="BackgroundImageFix"/>
<feColorMatrix in="SourceAlpha" type="matrix" values="0 0 0 0 0 0 0 0 0 0 0 0 0 0 0 0 0 0 127 0" result="hardAlpha"/>
<feOffset/>
<feGaussianBlur stdDeviation="2"/>
<feComposite in2="hardAlpha" operator="out"/>
<feColorMatrix type="matrix" values="0 0 0 0 0.666667 0 0 0 0 0.12549 0 0 0 0 0.368627 0 0 0 1 0"/>
<feBlend mode="normal" in2="BackgroundImageFix" result="effect1_dropShadow_2024_171"/>
<feBlend mode="normal" in="SourceGraphic" in2="effect1_dropShadow_2024_171" result="shape"/>
</filter>
</defs>
</svg>
