<svg width="112" height="53" viewBox="0 0 112 53" fill="none" xmlns="http://www.w3.org/2000/svg">
<g id="Copy Right My Design ;) - End">
<g id="NIVO" filter="url(#filter0_f_1_53720)">
<path id="Vector" d="M84.4111 32.6C83.4511 32.6 65.8187 32.5812 64.9907 32.2572C64.1747 31.9332 63.4667 31.4832 62.8667 30.9072C62.2667 30.3192 61.7987 29.6352 61.4627 28.8552C61.1267 28.0752 60.9587 27.2232 60.9587 26.2992C60.9587 25.3752 61.1267 24.5232 61.4627 23.7432C61.7987 22.9632 62.2667 22.2852 62.8667 21.7092C63.4667 21.1212 64.1747 20.6652 64.9907 20.3412C65.8067 20.0172 83.4391 20.0657 84.4111 20.0657C85.3711 20.0657 86.2531 20.2277 87.0571 20.5517C87.8731 20.8637 88.5811 21.3137 89.1811 21.9017C89.7931 22.4777 90.2611 23.1557 90.5851 23.9357C90.9211 24.7157 91.0891 25.916 91.0891 26.156C91.0891 27.092 90.9211 27.95 90.5851 28.73C90.2611 29.51 89.7931 30.194 89.1811 30.782C88.5811 31.358 87.8731 31.808 87.0571 32.132C86.2531 32.444 85.3711 32.6 84.4111 32.6ZM84.4111 30.998C85.1071 30.998 85.7491 30.878 86.3371 30.638C86.9371 30.398 87.4531 30.062 87.8851 29.63C88.3291 29.186 88.6711 28.67 88.9111 28.082C89.1631 27.494 89.2891 26.852 89.2891 26.156C89.2891 26.156 89.1631 25.1717 88.9111 24.5837C88.6711 23.9957 88.3291 23.4857 87.8851 23.0537C87.4531 22.6097 86.9371 22.2677 86.3371 22.0277C85.7491 21.7877 85.1071 21.6677 84.4111 21.6677C83.7031 21.6677 66.3107 21.5772 65.7107 21.8172C65.1227 22.0572 64.6067 22.3992 64.1627 22.8432C63.7187 23.2752 63.3707 23.7852 63.1187 24.3732C62.8787 24.9612 62.7587 25.6032 62.7587 26.2992C62.7587 26.9952 62.8787 27.6372 63.1187 28.2252C63.3707 28.8132 63.7187 29.3292 64.1627 29.7732C64.6067 30.2052 65.1227 30.5412 65.7107 30.7812C66.3107 31.0212 83.7031 30.998 84.4111 30.998Z" fill="#CD1668"/>
<path id="Vector_2" d="M53.1929 32.6L47.6489 20H49.5929L54.6869 31.628H53.5709L58.7009 20H60.5009L54.9749 32.6H53.1929Z" fill="white"/>
<path id="Vector_3" d="M44.1077 32.6V20H45.9077V32.6H44.1077Z" fill="white"/>
<path id="Vector_4" d="M20.911 32.6V20H22.387L39.3103 30.35H38.5363V20H40.3363V32.6H38.8603L21.937 22.25H22.711V32.6H20.911Z" fill="white"/>
</g>
<g id="NIVO_2">
<path id="Vector_5" d="M84.4111 32.6C83.4511 32.6 65.8187 32.5812 64.9907 32.2572C64.1747 31.9332 63.4667 31.4832 62.8667 30.9072C62.2667 30.3192 61.7987 29.6352 61.4627 28.8552C61.1267 28.0752 60.9587 27.2232 60.9587 26.2992C60.9587 25.3752 61.1267 24.5232 61.4627 23.7432C61.7987 22.9632 62.2667 22.2852 62.8667 21.7092C63.4667 21.1212 64.1747 20.6652 64.9907 20.3412C65.8067 20.0172 83.4391 20.0657 84.4111 20.0657C85.3711 20.0657 86.2531 20.2277 87.0571 20.5517C87.8731 20.8637 88.5811 21.3137 89.1811 21.9017C89.7931 22.4777 90.2611 23.1557 90.5851 23.9357C90.9211 24.7157 91.0891 25.916 91.0891 26.156C91.0891 27.092 90.9211 27.95 90.5851 28.73C90.2611 29.51 89.7931 30.194 89.1811 30.782C88.5811 31.358 87.8731 31.808 87.0571 32.132C86.2531 32.444 85.3711 32.6 84.4111 32.6ZM84.4111 30.998C85.1071 30.998 85.7491 30.878 86.3371 30.638C86.9371 30.398 87.4531 30.062 87.8851 29.63C88.3291 29.186 88.6711 28.67 88.9111 28.082C89.1631 27.494 89.2891 26.852 89.2891 26.156C89.2891 26.156 89.1631 25.1717 88.9111 24.5837C88.6711 23.9957 88.3291 23.4857 87.8851 23.0537C87.4531 22.6097 86.9371 22.2677 86.3371 22.0277C85.7491 21.7877 85.1071 21.6677 84.4111 21.6677C83.7031 21.6677 66.3107 21.5772 65.7107 21.8172C65.1227 22.0572 64.6067 22.3992 64.1627 22.8432C63.7187 23.2752 63.3707 23.7852 63.1187 24.3732C62.8787 24.9612 62.7587 25.6032 62.7587 26.2992C62.7587 26.9952 62.8787 27.6372 63.1187 28.2252C63.3707 28.8132 63.7187 29.3292 64.1627 29.7732C64.6067 30.2052 65.1227 30.5412 65.7107 30.7812C66.3107 31.0212 83.7031 30.998 84.4111 30.998Z" fill="#AA205E"/>
<path id="Vector_6" d="M53.1929 32.6L47.6489 20H49.5929L54.6869 31.628H53.5709L58.7009 20H60.5009L54.9749 32.6H53.1929Z" fill="white"/>
<path id="Vector_7" d="M44.1077 32.6V20H45.9077V32.6H44.1077Z" fill="white"/>
<path id="Vector_8" d="M20.911 32.6V20H22.387L39.3103 30.35H38.5363V20H40.3363V32.6H38.8603L21.937 22.25H22.711V32.6H20.911Z" fill="white"/>
</g>
</g>
<defs>
<filter id="filter0_f_1_53720" x="0.911011" y="0" width="110.178" height="52.6" filterUnits="userSpaceOnUse" color-interpolation-filters="sRGB">
<feFlood flood-opacity="0" result="BackgroundImageFix"/>
<feBlend mode="normal" in="SourceGraphic" in2="BackgroundImageFix" result="shape"/>
<feGaussianBlur stdDeviation="10" result="effect1_foregroundBlur_1_53720"/>
</filter>
</defs>
</svg>
